<svg id="analytics_1_" data-name="analytics (1)" xmlns="http://www.w3.org/2000/svg" width="128" height="128" viewBox="0 0 128 128">
  <g id="Group_21" data-name="Group 21" transform="translate(20.645 37.161)">
    <rect id="Rectangle_82" data-name="Rectangle 82" width="91" height="112" transform="translate(-20.645 -25.161)" fill="#fff"/>
    <path id="Path_30" data-name="Path 30" d="M416.516,248H400V184h16.516Z" transform="translate(-317.419 -173.677)" fill="#ffa64d"/>
    <path id="Path_31" data-name="Path 31" d="M336.516,218.323H320V144h16.516Z" transform="translate(-258.065 -144)" fill="#ffa64d"/>
    <path id="Path_32" data-name="Path 32" d="M256.516,265.806H240V208h16.516Z" transform="translate(-198.71 -191.484)" fill="#ffa64d"/>
    <path id="Path_33" data-name="Path 33" d="M176.516,289.548H160V240h16.516Z" transform="translate(-139.355 -215.226)" fill="#ffa64d"/>
    <path id="Path_34" data-name="Path 34" d="M96.516,325.161H80V288H96.516Z" transform="translate(-80 -250.839)" fill="#ffa64d"/>
  </g>
  <g id="Group_22" data-name="Group 22">
    <path id="Path_35" data-name="Path 35" d="M128,28.9H94.968V8.258H72.258V4.129H56.669a12.281,12.281,0,0,0-18.37,0H22.71V8.258H0V128H94.968v-8.258H128ZM26.839,8.258H40.3l.619-.82a8.165,8.165,0,0,1,13.128,0l.617.82H68.129V20.645H26.839Zm64,115.613H4.129V12.387H22.71V24.774H72.258V12.387H90.839V28.9H8.258v90.839H90.839Zm33.032-8.258H12.387V33.032H123.871Z" fill="#333"/>
    <path id="Path_36" data-name="Path 36" d="M69.3,168.555l-3.13,3.13,2.919,2.919,3.13-3.13a8.257,8.257,0,0,0,2.1.877v4.422h4.129v-4.422a8.083,8.083,0,0,0,2.1-.877l3.13,3.13,2.919-2.919-3.13-3.13a8.257,8.257,0,0,0,.877-2.1h4.422v-4.129H84.352a8.082,8.082,0,0,0-.877-2.1l3.13-3.13-2.919-2.919-3.13,3.13a8.257,8.257,0,0,0-2.1-.877V152H74.323v4.422a8.083,8.083,0,0,0-2.1.877l-3.13-3.13-2.919,2.919,3.13,3.13a8.257,8.257,0,0,0-.877,2.1H64v4.129h4.422A8.081,8.081,0,0,0,69.3,168.555Zm7.087-8.3a4.129,4.129,0,1,1-4.129,4.129A4.133,4.133,0,0,1,76.387,160.258Z" transform="translate(-47.484 -112.774)" fill="#333"/>
    <rect id="Rectangle_52" data-name="Rectangle 52" width="16.516" height="4.129" transform="translate(45.419 37.161)" fill="#333"/>
    <rect id="Rectangle_53" data-name="Rectangle 53" width="4.129" height="4.129" transform="translate(57.806 45.419)" fill="#333"/>
    <rect id="Rectangle_54" data-name="Rectangle 54" width="8.258" height="4.129" transform="translate(45.419 45.419)" fill="#333"/>
  </g>
</svg>
