<svg xmlns="http://www.w3.org/2000/svg" xmlns:xlink="http://www.w3.org/1999/xlink" width="132.998" height="30.974" viewBox="0 0 132.998 30.974">
  <defs>
    <linearGradient id="linear-gradient" x1="0.521" y1="1.55" x2="0.479" y2="-0.55" gradientUnits="objectBoundingBox">
      <stop offset="0" stop-color="#08aeea"/>
      <stop offset="1" stop-color="#2af598"/>
    </linearGradient>
  </defs>
  <g id="_1.01_Logo" data-name="1.01_Logo" transform="translate(-94.983 -25.016)">
    <g id="Tourism" fill="url(#linear-gradient)">
      <path d="M 108.1247940063477 53.97737503051758 C 108.0838623046875 53.97083282470703 108.045768737793 53.96218872070312 108.0115585327148 53.95255661010742 C 108.1174087524414 53.11334991455078 108.7519378662109 51.04656600952148 111.7697296142578 46.52276992797852 C 112.6051635742188 45.27042007446289 113.4990539550781 44.01662063598633 114.362434387207 42.84668350219727 L 111.1015319824219 47.76266098022461 L 110.1973495483398 49.12577056884766 L 111.3045120239258 50.23294830322266 C 111.1269302368164 50.47747039794922 110.8952941894531 50.77933120727539 110.5941696166992 51.15189743041992 L 110.4892578125 51.28193283081055 L 110.4829330444336 51.2898063659668 L 110.476676940918 51.29775238037109 C 110.3683166503906 51.4354248046875 110.2478561401367 51.59427642822266 110.1203308105469 51.76245880126953 C 109.7768020629883 52.21551513671875 109.3492736816406 52.77935028076172 108.9082794189453 53.26064300537109 C 108.5018997192383 53.70411682128906 108.2470321655273 53.89825057983398 108.1247940063477 53.97737503051758 Z M 146.4714050292969 53.18889617919922 C 146.3035736083984 53.18889617919922 146.2303466796875 53.14182281494141 146.1666107177734 53.06586074829102 C 146.0453643798828 52.92140579223633 145.9730072021484 52.67544174194336 145.9730072021484 52.40789794921875 C 145.9730072021484 51.70782470703125 146.2040863037109 50.97471237182617 146.4910583496094 50.20692825317383 C 146.7218017578125 51.29157638549805 147.4925537109375 52.06379318237305 148.5984649658203 52.32756042480469 C 147.3832855224609 53.08864974975586 146.7302856445312 53.18889617919922 146.4714050292969 53.18889617919922 Z M 217.5408630371094 52.84933853149414 C 217.4766387939453 52.79640197753906 217.3619079589844 52.61767578125 217.3619079589844 52.40789794921875 C 217.3619079589844 51.76993942260742 217.7572937011719 50.82585906982422 218.2558288574219 49.87725067138672 C 218.3880920410156 50.34109497070312 218.6356506347656 50.78322982788086 218.9830017089844 51.16085815429688 C 219.2278289794922 51.427001953125 219.5048217773438 51.64091110229492 219.8028411865234 51.79745483398438 C 218.2931671142578 52.69745635986328 217.6756134033203 52.83013153076172 217.5408630371094 52.84933853149414 Z M 173.4840087890625 52.81000518798828 C 173.3047332763672 52.81000518798828 172.8848876953125 52.81000518798828 172.4359893798828 52.07062530517578 C 172.186279296875 51.6593132019043 172.0010986328125 51.12276458740234 171.9086303710938 50.56906890869141 C 172.0178527832031 50.77737808227539 172.1481018066406 50.97360229492188 172.2992553710938 51.15733337402344 C 172.8966827392578 51.88346099853516 173.7518463134766 52.32910537719727 174.8489990234375 52.48799514770508 C 174.3437042236328 52.69986724853516 173.8841552734375 52.81000518798828 173.4840087890625 52.81000518798828 Z M 162.0931854248047 52.51482391357422 C 161.5212249755859 52.51480484008789 161.2154083251953 51.79204177856445 161.2154083251953 51.27029800415039 C 161.2154083251953 50.73313140869141 161.3418426513672 50.20650482177734 161.5562286376953 49.68867111206055 C 161.7659301757812 50.67816162109375 162.4725494384766 51.51852416992188 163.4047546386719 51.94938659667969 C 162.4763488769531 52.4940071105957 162.0983276367188 52.51465606689453 162.0931854248047 52.51482391357422 Z M 207.9108276367188 52.24008560180664 C 207.9665832519531 52.01348495483398 208.1092987060547 51.59535980224609 208.4724884033203 50.8852424621582 C 208.8296051025391 50.18698883056641 209.3362884521484 49.32035446166992 210.0556945800781 48.18192672729492 L 210.5254516601562 48.64664077758789 L 210.6100616455078 48.73033142089844 L 211.2331085205078 49.34668350219727 L 210.3290710449219 50.17276763916016 L 210.3140106201172 50.18653106689453 L 210.2992248535156 50.20060729980469 C 210.1542816162109 50.33858871459961 210.0061492919922 50.48489761352539 209.8493347167969 50.6397705078125 C 209.4313201904297 51.05260467529297 208.95751953125 51.52053451538086 208.4960479736328 51.87073135375977 C 208.2283935546875 52.0738410949707 208.0361022949219 52.1823616027832 207.9108276367188 52.24008560180664 Z M 137.9591979980469 52.00900650024414 C 137.6994323730469 52.00900650024414 137.4512023925781 51.81157302856445 137.2474517822266 51.51319885253906 C 137.5407562255859 51.64426422119141 137.8567199707031 51.71060562133789 138.1716003417969 51.71060562133789 C 138.3714294433594 51.71060562133789 138.5857086181641 51.68532562255859 138.8108978271484 51.63847351074219 C 138.2497100830078 51.99571990966797 137.9938354492188 52.00900650024414 137.9591979980469 52.00900650024414 Z M 199.5171966552734 51.99788284301758 C 199.2373809814453 51.54505157470703 198.9132843017578 50.44301986694336 198.8997497558594 49.39896011352539 C 199.2339935302734 50.04512405395508 199.8522491455078 50.57522583007812 200.6355133056641 50.6807746887207 C 200.3539886474609 51.01345443725586 200.0780487060547 51.34517669677734 199.8086547851562 51.67570877075195 C 199.6868438720703 51.81841659545898 199.5915985107422 51.92239379882812 199.5171966552734 51.99788284301758 Z M 183.4249572753906 51.61714553833008 C 182.8825225830078 51.21534729003906 182.4330444335938 50.70606994628906 182.1534271240234 50.08453369140625 L 182.0214691162109 49.79121398925781 L 182.3950805664062 49.81138610839844 C 182.9121704101562 49.83931350708008 183.4047393798828 50.41884231567383 184.0238952636719 51.2539176940918 L 183.4249572753906 51.61714553833008 Z M 128.4514770507812 49.27029800415039 L 128.4109191894531 49.27029800415039 L 128.2320404052734 48.86373138427734 C 127.9817657470703 48.29495239257812 127.8929138183594 48.03824234008789 127.8929138183594 47.73060607910156 C 127.8929138183594 46.70733261108398 128.7426300048828 45.17942428588867 129.1509704589844 44.44515228271484 C 129.5074310302734 43.80417251586914 129.8209686279297 43.24038314819336 129.703125 42.51564025878906 L 130.7583160400391 42.79513168334961 C 130.7595520019531 42.79545974731445 130.7607727050781 42.79578399658203 130.7619781494141 42.79611206054688 C 130.7780609130859 42.89519882202148 130.7949981689453 43.06635665893555 130.7949981689453 43.34760665893555 C 130.7949981689453 44.52996826171875 130.2745208740234 45.57529449462891 129.6155548095703 46.89873123168945 C 129.5263671875 47.07782363891602 129.4365692138672 47.25822448730469 129.3472442626953 47.44065856933594 L 128.4514770507812 49.27029800415039 Z M 146.7212219238281 47.8987922668457 L 146.2764282226562 47.45398712158203 L 146.1918182373047 47.36938858032227 L 145.8772735595703 47.05484771728516 L 148.7578277587891 44.47792434692383 C 148.6692352294922 44.59071350097656 148.5814514160156 44.70467758178711 148.4947967529297 44.81962203979492 C 147.6340789794922 45.96144104003906 147.0458984375 46.98104095458984 146.7212219238281 47.8987922668457 Z M 173.1251373291016 45.7385368347168 C 173.6839141845703 44.81453704833984 174.3988952636719 43.92902755737305 175.2016754150391 43.18140411376953 C 175.8918762207031 42.53865051269531 176.4969635009766 42.13499069213867 176.9446868896484 41.90271377563477 C 176.6543426513672 42.31227111816406 176.2357788085938 42.82867431640625 175.6424713134766 43.44998550415039 C 174.8001251220703 44.33211898803711 173.8594207763672 45.15987396240234 173.1251373291016 45.7385368347168 Z M 191.1143188476562 45.18170166015625 C 190.9840850830078 44.27692794799805 190.8173828125 43.1695442199707 190.5706481933594 41.77656936645508 L 190.4098510742188 40.86880493164062 L 190.5060729980469 40.78098678588867 L 190.5553131103516 39.97166061401367 C 190.5707092285156 39.71878814697266 190.6292724609375 39.51256561279297 190.6971740722656 39.36537170410156 C 190.786376953125 39.95337677001953 190.9153137207031 40.50347518920898 191.0408935546875 41.03918838500977 C 191.2399749755859 41.88844299316406 191.4280090332031 42.69060516357422 191.4280090332031 43.55820465087891 C 191.4280090332031 44.1275749206543 191.3139801025391 44.66934585571289 191.1143188476562 45.18170166015625 Z M 121.0890960693359 45.03040313720703 C 121.5821151733398 44.31410598754883 122.2796859741211 43.62602996826172 123.2109527587891 42.91458892822266 L 123.2340774536133 42.89693450927734 L 123.2566757202148 42.87858581542969 C 124.3998870849609 41.95134735107422 125.8367309570312 41.19841384887695 127.2919845581055 40.72868728637695 L 126.9203796386719 40.94630432128906 L 125.889533996582 41.50553131103516 L 125.9304885864258 41.51638031005859 C 125.908332824707 41.5289421081543 125.8861083984375 41.54154205322266 125.86376953125 41.55420684814453 C 124.4461135864258 42.35784149169922 122.8393096923828 43.26869583129883 121.6265335083008 44.43507766723633 L 121.6142044067383 44.44693374633789 L 121.6020965576172 44.45898818969727 C 121.4236907958984 44.63653182983398 121.2522735595703 44.82793426513672 121.0890960693359 45.03040313720703 Z M 220.3432006835938 44.60045623779297 L 219.9099273681641 44.16718673706055 L 219.8253326416016 44.08258819580078 L 219.6253509521484 43.88260650634766 L 222.6522979736328 41.50851440429688 L 222.6588592529297 41.50334930419922 L 222.6653900146484 41.49814987182617 C 222.7262420654297 41.44960021972656 222.7840270996094 41.40396499633789 222.8389892578125 41.36100387573242 C 222.8852996826172 41.43316268920898 222.9332885742188 41.50976181030273 222.9745330810547 41.58018112182617 C 222.8397369384766 41.77687072753906 222.6063385009766 42.05525588989258 222.2769012451172 42.41204071044922 L 222.2724761962891 42.41682434082031 L 222.2680969238281 42.42162322998047 C 221.4924468994141 43.27271270751953 220.8592529296875 43.98561859130859 220.3432006835938 44.60045623779297 Z M 211.7444915771484 43.94529724121094 C 211.5530548095703 43.35752105712891 211.13037109375 42.87325286865234 210.584228515625 42.6002082824707 C 212.3862915039062 41.17641830444336 213.37109375 40.66193389892578 213.8312683105469 40.47691345214844 C 213.7696838378906 40.68148040771484 213.6124572753906 41.08176422119141 213.2121124267578 41.75716781616211 C 212.7941436767578 42.46229934692383 212.249755859375 43.23689270019531 211.7444915771484 43.94529724121094 Z M 139.4900665283203 43.46976852416992 C 140.1056060791016 42.74880218505859 140.7503814697266 42.14661026000977 141.3424377441406 41.70534515380859 C 140.6277008056641 42.51438903808594 140.3148040771484 42.85241317749023 139.4900665283203 43.46976852416992 Z M 157.2766418457031 43.42511749267578 L 157.1451416015625 43.4126091003418 C 157.2710723876953 43.06587600708008 157.4913635253906 42.68191909790039 157.7911071777344 42.28676605224609 L 161.0974273681641 41.83151626586914 C 161.9781799316406 41.71024322509766 162.7811737060547 41.5906982421875 163.4896087646484 41.4852409362793 C 164.6705932617188 41.30943298339844 165.7168121337891 41.1536865234375 166.3742523193359 41.10750198364258 C 166.4945831298828 41.32744598388672 166.5440216064453 41.49467468261719 166.5689392089844 41.63655853271484 C 166.5448303222656 41.83710479736328 166.4014282226562 42.01021194458008 165.5888061523438 42.67734909057617 L 165.5255279541016 42.72931289672852 L 165.5088348388672 42.74302291870117 L 165.4924468994141 42.75711441040039 C 165.3277130126953 42.89853668212891 165.1602783203125 43.04634475708008 164.9916839599609 43.20026016235352 L 164.5255737304688 42.7342414855957 L 164.4409484863281 42.64964294433594 L 163.6665344238281 41.87538909912109 L 162.5970611572266 42.11075210571289 L 158.1924591064453 43.08003997802734 L 157.3834533691406 43.25806045532227 L 157.2766418457031 43.42511749267578 Z M 180.4248809814453 36.62110137939453 C 180.5081787109375 36.50270843505859 180.6243743896484 36.37427139282227 180.7720642089844 36.25129699707031 C 180.8151550292969 36.21540832519531 180.8589630126953 36.18149185180664 180.9031219482422 36.14956665039062 C 180.7588195800781 36.33916091918945 180.5926513671875 36.50487518310547 180.4248809814453 36.62110137939453 Z M 97.09738922119141 34.1798095703125 C 97.13540649414062 33.9708251953125 97.17688751220703 33.76150894165039 97.21158599853516 33.58640670776367 C 97.25524139404297 33.36605072021484 97.29654693603516 33.1577262878418 97.33180999755859 32.95913696289062 C 97.37539672851562 32.72413635253906 97.41474914550781 32.5027961730957 97.45189666748047 32.29375076293945 C 97.60382080078125 31.43882369995117 97.71360778808594 30.82111549377441 97.89427947998047 30.54180526733398 C 98.05831146240234 30.28825950622559 98.53500366210938 29.9887866973877 99.35160064697266 29.62626075744629 L 99.35922241210938 29.62287902832031 L 99.36680603027344 29.61944198608398 C 103.2253341674805 27.86786079406738 108.1353302001953 27.01640510559082 114.3774032592773 27.01640510559082 C 116.2172393798828 27.01640510559082 118.3639144897461 27.0758056640625 120.335823059082 27.5163688659668 C 120.825080871582 27.62640571594238 121.1329650878906 27.75638771057129 121.2482376098633 27.90207862854004 C 121.4259948730469 28.12679672241211 121.606330871582 28.67675971984863 121.8135147094727 29.31968116760254 L 120.7373123168945 29.33829689025879 C 112.8567352294922 29.47462272644043 105.4602737426758 30.59622383117676 98.75340270996094 32.67189788818359 L 97.34471130371094 33.10787963867188 L 97.34471130371094 34.17564010620117 L 97.09738922119141 34.1798095703125 Z" stroke="none"/>
      <path d="M 108.2799224853516 55.9898567199707 C 107.2206344604492 55.9898567199707 105.9929809570312 55.39950561523438 105.9929809570312 54.21961975097656 C 105.9929809570312 50.04809188842773 113.7852172851562 40.22915267944336 116.5374526977539 36.73173904418945 L 120.7719268798828 31.33797454833984 C 113.4881591796875 31.46397399902344 106.2891006469727 32.43326950073242 99.34474945068359 34.58244323730469 L 99.34474945068359 34.66715240478516 C 99.93780517578125 34.79315185546875 102.7322769165039 35.08832931518555 102.7322769165039 35.93162155151367 C 102.7322769165039 36.53103256225586 101.9520492553711 36.39421844482422 100.9214553833008 36.25738525390625 C 100.4336929321289 36.19256591796875 99.88925170898438 36.12870025634766 99.34474945068359 36.14220809936523 L 96.88863372802734 36.18362045288086 C 95.91474914550781 36.18362045288086 94.98333740234375 36.18362045288086 94.98333740234375 35.04597473144531 C 94.98333740234375 34.37185668945312 95.23709869384766 33.31891632080078 95.36404418945312 32.60161972045898 C 95.87251281738281 29.8629150390625 95.7869873046875 29.02044486999512 98.5401611328125 27.79832649230957 C 103.3676910400391 25.60679817199707 109.1267471313477 25.01644515991211 114.3774566650391 25.01644515991211 C 116.4951019287109 25.01644515991211 118.6974563598633 25.10103416442871 120.7719268798828 25.56444549560547 C 123.397216796875 26.15491485595703 123.1856918334961 27.4607982635498 124.2863922119141 30.36868095397949 C 124.6680450439453 31.37938690185547 123.312629699707 32.93915176391602 122.7194519042969 33.86609268188477 L 112.7681579589844 48.86820983886719 L 112.8528671264648 48.95279693603516 C 113.2767639160156 48.78361511230469 113.8274612426758 48.91045379638672 113.8274536132812 49.54232788085938 C 113.8274536132812 50.38468170166016 112.5567474365234 51.90209197998047 112.0481567382812 52.53479766845703 C 111.2859268188477 53.50315093994141 109.5921630859375 55.9898567199707 108.2799224853516 55.9898567199707 Z M 146.4714508056641 55.18891525268555 C 144.9045104980469 55.18891525268555 143.9729766845703 53.88303375244141 143.9729766845703 52.40785598754883 C 143.9729766845703 51.14432907104492 144.4382781982422 49.96350479125977 144.8621673583984 48.86820983886719 L 144.7775726318359 48.78362274169922 C 143.1260375976562 50.21644592285156 140.2883911132812 54.009033203125 137.9592132568359 54.009033203125 C 135.8847503662109 54.009033203125 134.7416839599609 51.64915084838867 134.7416839599609 49.83750534057617 C 134.7416839599609 49.60597610473633 134.7519226074219 49.37432861328125 134.7715759277344 49.1424446105957 C 133.2225189208984 50.62515258789062 131.5367431640625 51.27032852172852 129.0689849853516 51.27032852172852 C 127.2906341552734 53.08197402954102 125.215217590332 54.43115234375 122.5475692749023 54.43115234375 C 120.3453369140625 54.43115234375 118.313102722168 52.23962020874023 118.1429824829102 48.40468215942383 C 118.0583953857422 45.24385833740234 119.6253356933594 43.13703155517578 121.9967498779297 41.32526779174805 C 124.28369140625 39.47044372558594 127.3328628540039 38.33279800415039 129.9159240722656 38.2067985534668 C 130.8477325439453 38.16440582275391 132.2451019287109 38.58575057983398 132.2451019287109 39.72420883178711 C 132.2451019287109 40.35597610473633 131.7366333007812 40.60891723632812 131.2704010009766 40.86185836791992 C 132.5412139892578 41.19844436645508 132.7949829101562 42.08315277099609 132.7949829101562 43.34762191772461 C 132.7949829101562 45.20162200927734 131.9481658935547 46.67668151855469 131.1434478759766 48.32009124755859 C 133.0075073242188 48.65762710571289 134.1927490234375 47.05644607543945 135.5058135986328 46.08715057373047 L 135.5199279785156 46.14632797241211 C 136.6294555664062 43.41326904296875 138.7409820556641 40.99773788452148 140.627685546875 39.76562118530273 C 141.2208709716797 39.38668060302734 141.770751953125 39.30209350585938 142.4907531738281 39.30209350585938 C 143.0838012695312 39.30208969116211 145.2428588867188 38.92316055297852 145.0736846923828 40.18679809570312 C 144.9891052246094 40.86185836791992 143.8460388183594 42.04174041748047 143.3799285888672 42.42056274414062 C 142.0676879882812 43.8957405090332 141.81298828125 44.27456283569336 140.1614532470703 45.45538711547852 C 138.8493347167969 46.38150405883789 137.832275390625 47.30844497680664 137.832275390625 49.07879638671875 C 137.832275390625 49.28938674926758 137.8746337890625 49.71056365966797 138.1715698242188 49.71056365966797 C 138.9339294433594 49.71056365966797 141.2631072998047 48.48844528198242 143.2529907226562 46.71903228759766 L 147.4452209472656 42.96868133544922 C 148.3343963623047 42.16773986816406 152.4842834472656 38.16444396972656 153.5435791015625 38.16444396972656 C 153.8820495605469 38.16444396972656 154.3481597900391 38.29044342041016 154.5174560546875 40.48197555541992 C 154.6020355224609 41.49362182617188 153.4580383300781 42.46291732788086 152.7813415527344 43.05326843261719 C 151.4259185791016 44.27456283569336 148.4189910888672 47.60374069213867 148.4189910888672 49.49997329711914 C 148.4189910888672 50.17409133911133 148.8006286621094 50.42703247070312 149.478271484375 50.42703247070312 C 150.3916931152344 50.42703247070312 151.9599304199219 49.47668075561523 153.377685546875 48.46997451782227 L 153.3716888427734 48.40468215942383 C 154.4723968505859 47.51997375488281 155.361572265625 46.46609115600586 156.1661529541016 45.32844543457031 C 155.2769775390625 45.24385833740234 155.0232238769531 44.90726852416992 155.0232238769531 44.0217399597168 C 155.0232238769531 40.98785781860352 159.34228515625 37.953857421875 160.3583984375 37.953857421875 C 160.7822723388672 37.953857421875 161.1207427978516 38.29044342041016 161.1207427978516 38.67032623291016 C 161.1207427978516 39.09150314331055 160.9938049316406 39.47044372558594 160.8246307373047 39.8502082824707 C 164.8053436279297 39.30209350585938 167.1345367431641 38.79632949829102 167.5574493408203 39.30209350585938 C 168.19287109375 40.1031494140625 168.4889831542969 40.77714920043945 168.5735778808594 41.53585815429688 C 168.5735778808594 42.84268188476562 167.7689819335938 43.47444534301758 166.7952117919922 44.27456283569336 C 165.5675659179688 45.32844543457031 163.4921569824219 47.39315032958984 163.4921569824219 49.07879638671875 C 163.4921569824219 49.75291442871094 164.169921875 50.25868225097656 164.8053436279297 50.25868225097656 C 166.5287475585938 50.25868225097656 169.0111083984375 47.80467987060547 170.4568634033203 46.648681640625 C 171.9248657226562 42.78585815429688 175.6640472412109 39.63962173461914 177.6771087646484 39.63962173461914 C 178.3961639404297 39.63962173461914 179.5400390625 39.8924446105957 179.5400390625 40.81950378417969 C 179.5400390625 42.92644500732422 175.3479309082031 46.67668151855469 173.5694580078125 47.8989143371582 C 173.2301635742188 49.62691497802734 173.8655700683594 50.55385589599609 175.8132171630859 50.55385589599609 C 176.6752166748047 50.55385589599609 177.5309906005859 50.22444534301758 178.3540496826172 49.74938583374023 C 178.3533325195312 49.73644638061523 178.3529815673828 49.72350311279297 178.3529815673828 49.71056365966797 C 178.3529815673828 49.16338729858398 179.0307464599609 48.57303237915039 179.3690948486328 48.23644638061523 L 188.5589904785156 39.8502082824707 C 188.6435699462891 38.45973968505859 189.4481658935547 37.11056137084961 190.971923828125 37.11056137084961 C 192.2427520751953 37.11056137084961 192.4965209960938 37.49044418334961 192.6234588623047 38.67032623291016 C 192.79345703125 40.27138519287109 193.4280395507812 41.70420837402344 193.4280395507812 43.55820846557617 C 193.4280395507812 47.01420974731445 190.6334533691406 49.58456420898438 187.9235687255859 51.22797393798828 C 190.6335906982422 51.69152450561523 192.2849731445312 50.42703628540039 194.3603973388672 48.86820983886719 L 196.9011077880859 46.92962265014648 L 197.1113433837891 47.72538757324219 C 198.0337982177734 43.88255310058594 201.7485046386719 39.59725952148438 203.9706268310547 39.8924446105957 C 204.6060485839844 39.97621154785156 205.8767547607422 39.97621154785156 205.8767547607422 40.86185836791992 C 205.8767547607422 41.70420837402344 204.6906280517578 42.96868133544922 204.1829833984375 43.55820846557617 C 203.4207458496094 44.44385528564453 202.48828125 45.20162200927734 201.8538055419922 46.1295051574707 C 201.3875732421875 46.76126861572266 200.6253356933594 47.43538665771484 200.6253356933594 48.32009124755859 C 200.6253356933594 48.40468215942383 200.7521667480469 48.69985580444336 200.9222717285156 48.69985580444336 C 201.1338043212891 48.69985580444336 201.6414489746094 48.15185546875 201.7692260742188 48.02585601806641 C 203.8436889648438 45.87656402587891 211.3812255859375 38.37515258789062 214.13427734375 38.37515258789062 C 215.27734375 38.37515258789062 215.8703918457031 39.21844482421875 215.8703918457031 40.31373977661133 C 215.8703918457031 42.16773986816406 212.8634490966797 45.58138656616211 211.9320373535156 47.22479629516602 L 212.0166320800781 47.30844497680664 L 221.4180450439453 39.93479919433594 C 221.8409881591797 39.59726715087891 222.8994598388672 38.75491714477539 223.4079284667969 38.75491714477539 C 223.7462768554688 38.75491714477539 224.170166015625 39.76562118530273 224.2971038818359 39.93479919433594 C 224.5941619873047 40.3983268737793 225.0594482421875 41.03009033203125 225.0594482421875 41.62044525146484 C 225.0594482421875 42.3369140625 224.2125091552734 43.26385498046875 223.7462768554688 43.768798828125 C 220.4433441162109 47.39315032958984 220.189453125 48.0671501159668 220.147216796875 49.03644561767578 C 220.1048736572266 49.54233169555664 220.6559600830078 50.2164306640625 221.163330078125 50.09044647216797 C 222.0525207519531 49.87985610961914 222.5187530517578 49.87985610961914 227.7269897460938 46.34009170532227 L 227.981689453125 48.32009124755859 C 225.9908599853516 49.87985610961914 219.8934478759766 54.85232925415039 217.5219268798828 54.85232925415039 C 216.2510986328125 54.85232925415039 215.3619232177734 53.63009262084961 215.3619232177734 52.40785598754883 C 215.3619232177734 50.30103302001953 217.4373321533203 47.30844497680664 218.4956970214844 45.58138656616211 L 218.4111022949219 45.49679946899414 L 211.6781616210938 51.64915084838867 C 210.7043914794922 52.57621002197266 209.1798095703125 54.3042106628418 207.7398071289062 54.3042106628418 C 206.7236938476562 54.3042106628418 205.9190979003906 53.54550552368164 205.8767547607422 52.53479766845703 C 205.8345184326172 51.31256103515625 206.8506317138672 49.37397384643555 209.6027526855469 45.20162200927734 C 209.6874542236328 45.11785507202148 209.8566284179688 44.78044509887695 209.8566284179688 44.65444564819336 C 209.8566284179688 44.48514938354492 209.7296905517578 44.35914993286133 209.5605163574219 44.35914993286133 C 209.1375732421875 44.35914993286133 208.2060394287109 45.37079620361328 207.9089813232422 45.66597366333008 C 205.7067413330078 47.98350524902344 203.3361663818359 50.51162338256836 201.3453369140625 52.95597457885742 C 200.8800354003906 53.50315093994141 200.286865234375 54.13585662841797 199.5246276855469 54.13585662841797 C 197.491455078125 54.13585662841797 196.8993377685547 50.84915161132812 196.8993377685547 49.33173751831055 C 196.900634765625 49.19915008544922 196.9066314697266 49.06526947021484 196.9169769287109 48.92974090576172 C 194.2772216796875 51.47891998291016 189.9537963867188 54.92829895019531 186.7374572753906 54.76773834228516 C 184.2056884765625 54.65526962280273 181.4374542236328 53.36797332763672 180.3294525146484 50.90503311157227 C 178.3582763671875 52.86197280883789 175.7905120849609 54.80997467041016 173.4840393066406 54.80997467041016 C 170.9855651855469 54.80997467041016 169.8426361083984 51.9444465637207 169.8426361083984 49.79515075683594 C 169.8426361083984 49.59938812255859 169.8504028320312 49.40338516235352 169.8652191162109 49.20820999145508 C 167.7395782470703 51.33974075317383 164.0841674804688 54.51479721069336 162.095458984375 54.51479721069336 C 160.3160400390625 54.51479721069336 159.2154541015625 52.87138748168945 159.2154541015625 51.27032852172852 C 159.2154541015625 48.40468215942383 161.4176940917969 46.17091751098633 163.1114501953125 44.14856338500977 L 163.0268707275391 44.0639762878418 L 158.6222839355469 45.03326797485352 C 157.8768615722656 46.19926834106445 157.0565185546875 47.05574035644531 156.1935729980469 47.84973907470703 L 156.2534484863281 48.27785491943359 C 154.0934600830078 50.34326934814453 149.605224609375 55.18891525268555 146.4714508056641 55.18891525268555 Z M 127.7135696411133 42.79950332641602 C 126.2735748291016 43.64279937744141 124.28369140625 44.65444564819336 123.0128631591797 45.87656402587891 C 122.0814514160156 46.80362319946289 121.2767486572266 48.4470329284668 121.2767486572266 49.75291442871094 C 121.2767486572266 50.97515106201172 122.0814514160156 51.35491561889648 123.1398086547852 51.35491561889648 C 124.5374526977539 51.35491561889648 125.4267501831055 50.55385589599609 126.4014511108398 49.66915130615234 C 126.1043930053711 48.99420928955078 125.8928680419922 48.4470329284668 125.8928680419922 47.73056411743164 C 125.8928680419922 45.53915023803711 127.8827514648438 42.88409042358398 127.7135696411133 42.79950332641602 Z M 188.6013336181641 42.12538528442383 L 182.5028686523438 47.81432723999023 C 184.0698089599609 47.8989143371582 185.0013427734375 49.20479965209961 185.8059234619141 50.30103302001953 C 188.3466339111328 48.74221038818359 189.0242767333984 48.02585601806641 189.1512145996094 45.58138656616211 C 189.0242767333984 44.69585800170898 188.8551025390625 43.55820846557617 188.6013336181641 42.12538528442383 Z M 179.9631042480469 38.79632568359375 C 178.9469909667969 38.79632568359375 178.2693328857422 37.99620819091797 178.2693328857422 36.98456192016602 C 178.2693328857422 35.25656127929688 180.3023986816406 33.74009323120117 181.9539184570312 33.74009323120117 C 182.7161560058594 33.74009323120117 183.3507537841797 34.28726959228516 183.3507537841797 35.04597473144531 C 183.3507537841797 36.73173904418945 181.7847442626953 38.79632568359375 179.9631042480469 38.79632568359375 Z" stroke="none" fill="#636363"/>
    </g>
  </g>
</svg>
